<svg width="101" height="40" viewBox="0 0 101 40" fill="none" xmlns="http://www.w3.org/2000/svg">
<path fill-rule="evenodd" clip-rule="evenodd" d="M5 1C2.79086 1 1 2.79086 1 5V27C1 29.2091 2.79086 31 5 31H30L38 39L46 31H96C98.2091 31 100 29.2091 100 27V5C100 2.79086 98.2091 1 96 1H5Z" fill="#FFFEFD"/>
<path d="M30 31L30.3536 30.6464L30.2071 30.5H30V31ZM38 39L37.6464 39.3536L38 39.7071L38.3536 39.3536L38 39ZM46 31V30.5H45.7929L45.6464 30.6464L46 31ZM1.5 5C1.5 3.067 3.067 1.5 5 1.5V0.5C2.51472 0.5 0.5 2.51472 0.5 5H1.5ZM1.5 27V5H0.5V27H1.5ZM5 30.5C3.067 30.5 1.5 28.933 1.5 27H0.5C0.5 29.4853 2.51472 31.5 5 31.5V30.5ZM30 30.5H5V31.5H30V30.5ZM38.3536 38.6464L30.3536 30.6464L29.6464 31.3536L37.6464 39.3536L38.3536 38.6464ZM45.6464 30.6464L37.6464 38.6464L38.3536 39.3536L46.3536 31.3536L45.6464 30.6464ZM96 30.5H46V31.5H96V30.5ZM99.5 27C99.5 28.933 97.933 30.5 96 30.5V31.5C98.4853 31.5 100.5 29.4853 100.5 27H99.5ZM99.5 5V27H100.5V5H99.5ZM96 1.5C97.933 1.5 99.5 3.067 99.5 5H100.5C100.5 2.51472 98.4853 0.5 96 0.5V1.5ZM5 1.5H96V0.5H5V1.5Z" fill="#FAC663"/>
</svg>
