<svg width="183" height="68" viewBox="0 0 183 68" fill="none" xmlns="http://www.w3.org/2000/svg">
<ellipse cx="69.8969" cy="63.1246" rx="3.74451" ry="3.84191" fill="#F8D24E"/>
<ellipse cx="78.0101" cy="58.0021" rx="3.74451" ry="3.84191" fill="#F8D24E"/>
<ellipse cx="87.371" cy="52.2386" rx="3.74451" ry="3.84191" fill="#F8D24E"/>
<ellipse cx="96.1093" cy="47.1161" rx="3.74451" ry="3.84191" fill="#F8D24E"/>
<ellipse cx="91.1161" cy="60.5629" rx="3.74451" ry="3.84191" fill="#F8D24E"/>
<ellipse cx="99.2294" cy="55.4408" rx="3.74451" ry="3.84191" fill="#F8D24E"/>
<ellipse cx="108.591" cy="49.6776" rx="3.74451" ry="3.84191" fill="#F8D24E"/>
<ellipse cx="117.328" cy="44.5553" rx="3.74451" ry="3.84191" fill="#F8D24E"/>
<ellipse cx="109.215" cy="58.642" rx="3.74451" ry="3.84191" fill="#F8D24E"/>
<ellipse cx="117.328" cy="53.5189" rx="3.74451" ry="3.84191" fill="#F8D24E"/>
<ellipse cx="126.689" cy="47.7562" rx="3.74451" ry="3.84191" fill="#F8D24E"/>
<ellipse cx="135.425" cy="42.6344" rx="3.74451" ry="3.84191" fill="#F8D24E"/>
<ellipse cx="126.689" cy="56.0812" rx="3.74451" ry="3.84191" fill="#F8D24E"/>
<ellipse cx="134.802" cy="50.9581" rx="3.74451" ry="3.84191" fill="#F8D24E"/>
<ellipse cx="144.163" cy="45.1954" rx="3.74451" ry="3.84191" fill="#F8D24E"/>
<ellipse cx="152.901" cy="40.0729" rx="3.74451" ry="3.84191" fill="#F8D24E"/>
<ellipse cx="132.306" cy="63.1246" rx="3.74451" ry="3.84191" fill="#F8D24E"/>
<ellipse cx="140.419" cy="58.0021" rx="3.74451" ry="3.84191" fill="#F8D24E"/>
<ellipse cx="151.652" cy="63.7648" rx="3.74451" ry="3.84191" fill="#F8D24E"/>
<ellipse cx="149.78" cy="52.2386" rx="3.74451" ry="3.84191" fill="#F8D24E"/>
<ellipse cx="161.015" cy="58.0021" rx="3.74451" ry="3.84191" fill="#F8D24E"/>
<ellipse cx="169.751" cy="63.7648" rx="3.74451" ry="3.84191" fill="#F8D24E"/>
<ellipse cx="158.517" cy="47.1161" rx="3.74451" ry="3.84191" fill="#F8D24E"/>
<ellipse cx="169.751" cy="52.879" rx="3.74451" ry="3.84191" fill="#F8D24E"/>
<ellipse cx="178.488" cy="58.6422" rx="3.74451" ry="3.84191" fill="#F8D24E"/>
<ellipse cx="31.828" cy="20.8639" rx="3.74451" ry="3.84191" fill="#F8D24E"/>
<ellipse cx="39.9403" cy="15.7408" rx="3.74451" ry="3.84191" fill="#F8D24E"/>
<ellipse cx="49.3026" cy="9.97838" rx="3.74451" ry="3.84191" fill="#F8D24E"/>
<ellipse cx="58.0385" cy="4.85583" rx="3.74451" ry="3.84191" fill="#F8D24E"/>
<ellipse cx="16.226" cy="20.2223" rx="3.74451" ry="3.84191" fill="#F8D24E"/>
<ellipse cx="24.3387" cy="15.1002" rx="3.74451" ry="3.84191" fill="#F8D24E"/>
<ellipse cx="33.7001" cy="9.33752" rx="3.74451" ry="3.84191" fill="#F8D24E"/>
<ellipse cx="42.4369" cy="4.2152" rx="3.74451" ry="3.84191" fill="#F8D24E"/>
<ellipse cx="51.1747" cy="63.1246" rx="3.74451" ry="3.84191" fill="#F8D24E"/>
<ellipse cx="59.287" cy="58.0021" rx="3.74451" ry="3.84191" fill="#F8D24E"/>
<ellipse cx="68.6488" cy="52.2386" rx="3.74451" ry="3.84191" fill="#F8D24E"/>
<ellipse cx="77.3866" cy="47.1161" rx="3.74451" ry="3.84191" fill="#F8D24E"/>
<ellipse cx="41.1898" cy="59.2826" rx="3.74451" ry="3.84191" fill="#F8D24E"/>
<ellipse cx="49.3031" cy="54.16" rx="3.74451" ry="3.84191" fill="#F8D24E"/>
<ellipse cx="58.6639" cy="48.3971" rx="3.74451" ry="3.84191" fill="#F8D24E"/>
<ellipse cx="67.4012" cy="43.2748" rx="3.74451" ry="3.84191" fill="#F8D24E"/>
<ellipse cx="44.9335" cy="45.8361" rx="3.74451" ry="3.84191" fill="#F8D24E"/>
<ellipse cx="53.0458" cy="40.7135" rx="3.74451" ry="3.84191" fill="#F8D24E"/>
<ellipse cx="62.4081" cy="34.9503" rx="3.74451" ry="3.84191" fill="#F8D24E"/>
<ellipse cx="71.1449" cy="29.828" rx="3.74451" ry="3.84191" fill="#F8D24E"/>
<ellipse cx="44.9335" cy="23.4252" rx="3.74451" ry="3.84191" fill="#F8D24E"/>
<ellipse cx="53.0458" cy="18.3021" rx="3.74451" ry="3.84191" fill="#F8D24E"/>
<ellipse cx="62.4081" cy="12.5394" rx="3.74451" ry="3.84191" fill="#F8D24E"/>
<ellipse cx="71.1449" cy="7.41686" rx="3.74451" ry="3.84191" fill="#F8D24E"/>
<ellipse cx="43.0624" cy="35.5912" rx="3.74451" ry="3.84191" fill="#F8D24E"/>
<ellipse cx="51.1757" cy="30.4679" rx="3.74451" ry="3.84191" fill="#F8D24E"/>
<ellipse cx="60.5365" cy="24.7054" rx="3.74451" ry="3.84191" fill="#F8D24E"/>
<ellipse cx="69.2733" cy="19.5831" rx="3.74451" ry="3.84191" fill="#F8D24E"/>
<ellipse cx="3.74451" cy="17.0214" rx="3.74451" ry="3.84191" fill="#F8D24E"/>
<ellipse cx="11.8578" cy="11.8986" rx="3.74451" ry="3.84191" fill="#F8D24E"/>
<ellipse cx="21.2191" cy="6.1361" rx="3.74451" ry="3.84191" fill="#F8D24E"/>
<path d="M20.5951 20.8633C22.6631 20.8633 24.3396 19.1432 24.3396 17.0214C24.3396 14.8995 22.6631 13.1794 20.5951 13.1794C18.5271 13.1794 16.8506 14.8995 16.8506 17.0214C16.8506 19.1432 18.5271 20.8633 20.5951 20.8633Z" fill="#F8D24E"/>
</svg>
