<svg width="110" height="35" viewBox="0 0 110 35" fill="none" xmlns="http://www.w3.org/2000/svg">
<ellipse cx="3.74451" cy="28.4899" rx="3.74451" ry="3.84191" fill="#F8D24E"/>
<ellipse cx="11.8568" cy="23.3673" rx="3.74451" ry="3.84191" fill="#F8D24E"/>
<ellipse cx="21.2186" cy="17.6046" rx="3.74451" ry="3.84191" fill="#F8D24E"/>
<ellipse cx="29.9564" cy="12.4823" rx="3.74451" ry="3.84191" fill="#F8D24E"/>
<ellipse cx="51.1757" cy="30.411" rx="3.74451" ry="3.84191" fill="#F8D24E"/>
<ellipse cx="59.288" cy="25.288" rx="3.74451" ry="3.84191" fill="#F8D24E"/>
<ellipse cx="68.6498" cy="19.5255" rx="3.74451" ry="3.84191" fill="#F8D24E"/>
<ellipse cx="77.3856" cy="14.4027" rx="3.74451" ry="3.84191" fill="#F8D24E"/>
<ellipse cx="70.5223" cy="27.849" rx="3.74451" ry="3.84191" fill="#F8D24E"/>
<ellipse cx="78.6346" cy="22.7269" rx="3.74451" ry="3.84191" fill="#F8D24E"/>
<ellipse cx="87.996" cy="16.964" rx="3.74451" ry="3.84191" fill="#F8D24E"/>
<ellipse cx="96.7328" cy="11.8412" rx="3.74451" ry="3.84191" fill="#F8D24E"/>
<ellipse cx="106.095" cy="4.15758" rx="3.74451" ry="3.84191" fill="#F8D24E"/>
<ellipse cx="86.1234" cy="8.63976" rx="3.74451" ry="3.84191" fill="#F8D24E"/>
<ellipse cx="33.701" cy="29.7706" rx="3.74451" ry="3.84191" fill="#F8D24E"/>
<ellipse cx="41.8138" cy="24.6478" rx="3.74451" ry="3.84191" fill="#F8D24E"/>
<ellipse cx="51.1757" cy="18.8846" rx="3.74451" ry="3.84191" fill="#F8D24E"/>
<ellipse cx="59.9115" cy="13.7628" rx="3.74451" ry="3.84191" fill="#F8D24E"/>
<ellipse cx="18.0985" cy="29.1298" rx="3.74451" ry="3.84191" fill="#F8D24E"/>
<ellipse cx="26.2118" cy="24.0072" rx="3.74451" ry="3.84191" fill="#F8D24E"/>
<ellipse cx="35.5726" cy="18.2445" rx="3.74451" ry="3.84191" fill="#F8D24E"/>
<ellipse cx="44.3094" cy="13.1222" rx="3.74451" ry="3.84191" fill="#F8D24E"/>
</svg>
