<svg width="285" height="110" viewBox="0 0 285 110" fill="none" xmlns="http://www.w3.org/2000/svg">
<ellipse cx="110.248" cy="102.21" rx="5.85842" ry="6.2439" fill="#F8D24E"/>
<ellipse cx="122.94" cy="93.8847" rx="5.85842" ry="6.2439" fill="#F8D24E"/>
<ellipse cx="137.586" cy="84.5187" rx="5.85842" ry="6.2439" fill="#F8D24E"/>
<ellipse cx="151.256" cy="76.1935" rx="5.85842" ry="6.2439" fill="#F8D24E"/>
<ellipse cx="143.445" cy="98.0472" rx="5.85842" ry="6.2439" fill="#F8D24E"/>
<ellipse cx="156.138" cy="89.7221" rx="5.85842" ry="6.2439" fill="#F8D24E"/>
<ellipse cx="170.784" cy="80.3561" rx="5.85842" ry="6.2439" fill="#F8D24E"/>
<ellipse cx="184.454" cy="72.0309" rx="5.85842" ry="6.2439" fill="#F8D24E"/>
<ellipse cx="171.761" cy="94.9252" rx="5.85842" ry="6.2439" fill="#F8D24E"/>
<ellipse cx="184.455" cy="86.6001" rx="5.85842" ry="6.2439" fill="#F8D24E"/>
<ellipse cx="199.101" cy="77.2341" rx="5.85842" ry="6.2439" fill="#F8D24E"/>
<ellipse cx="212.77" cy="68.9089" rx="5.85842" ry="6.2439" fill="#F8D24E"/>
<ellipse cx="199.101" cy="90.7626" rx="5.85842" ry="6.2439" fill="#F8D24E"/>
<ellipse cx="211.793" cy="82.4375" rx="5.85842" ry="6.2439" fill="#F8D24E"/>
<ellipse cx="226.439" cy="73.0715" rx="5.85842" ry="6.2439" fill="#F8D24E"/>
<ellipse cx="240.109" cy="64.7463" rx="5.85842" ry="6.2439" fill="#F8D24E"/>
<ellipse cx="207.888" cy="102.21" rx="5.85842" ry="6.2439" fill="#F8D24E"/>
<ellipse cx="220.581" cy="93.8847" rx="5.85842" ry="6.2439" fill="#F8D24E"/>
<ellipse cx="238.156" cy="103.25" rx="5.85842" ry="6.2439" fill="#F8D24E"/>
<ellipse cx="235.227" cy="84.5187" rx="5.85842" ry="6.2439" fill="#F8D24E"/>
<ellipse cx="252.802" cy="93.8847" rx="5.85842" ry="6.2439" fill="#F8D24E"/>
<ellipse cx="266.471" cy="103.25" rx="5.85842" ry="6.2439" fill="#F8D24E"/>
<ellipse cx="248.896" cy="76.1935" rx="5.85842" ry="6.2439" fill="#F8D24E"/>
<ellipse cx="266.471" cy="85.5593" rx="5.85842" ry="6.2439" fill="#F8D24E"/>
<ellipse cx="280.141" cy="94.9252" rx="5.85842" ry="6.2439" fill="#F8D24E"/>
<ellipse cx="50.687" cy="33.5269" rx="5.85842" ry="6.2439" fill="#F8D24E"/>
<ellipse cx="63.3799" cy="25.2017" rx="5.85842" ry="6.2439" fill="#F8D24E"/>
<ellipse cx="78.0264" cy="15.8358" rx="5.85842" ry="6.2439" fill="#F8D24E"/>
<ellipse cx="91.6953" cy="7.5105" rx="5.85842" ry="6.2439" fill="#F8D24E"/>
<ellipse cx="26.2764" cy="32.4862" rx="5.85842" ry="6.2439" fill="#F8D24E"/>
<ellipse cx="38.9697" cy="24.161" rx="5.85842" ry="6.2439" fill="#F8D24E"/>
<ellipse cx="53.6162" cy="14.7953" rx="5.85842" ry="6.2439" fill="#F8D24E"/>
<ellipse cx="67.2852" cy="6.46998" rx="5.85842" ry="6.2439" fill="#F8D24E"/>
<ellipse cx="80.9556" cy="102.21" rx="5.85842" ry="6.2439" fill="#F8D24E"/>
<ellipse cx="93.6485" cy="93.8847" rx="5.85842" ry="6.2439" fill="#F8D24E"/>
<ellipse cx="108.295" cy="84.5187" rx="5.85842" ry="6.2439" fill="#F8D24E"/>
<ellipse cx="121.964" cy="76.1935" rx="5.85842" ry="6.2439" fill="#F8D24E"/>
<ellipse cx="65.333" cy="95.9658" rx="5.85842" ry="6.2439" fill="#F8D24E"/>
<ellipse cx="78.0264" cy="87.6406" rx="5.85842" ry="6.2439" fill="#F8D24E"/>
<ellipse cx="92.6724" cy="78.2749" rx="5.85842" ry="6.2439" fill="#F8D24E"/>
<ellipse cx="106.341" cy="69.9496" rx="5.85842" ry="6.2439" fill="#F8D24E"/>
<ellipse cx="71.1914" cy="74.1123" rx="5.85842" ry="6.2439" fill="#F8D24E"/>
<ellipse cx="83.8848" cy="65.7871" rx="5.85842" ry="6.2439" fill="#F8D24E"/>
<ellipse cx="98.5308" cy="56.4212" rx="5.85842" ry="6.2439" fill="#F8D24E"/>
<ellipse cx="112.2" cy="48.096" rx="5.85842" ry="6.2439" fill="#F8D24E"/>
<ellipse cx="71.1914" cy="37.6895" rx="5.85842" ry="6.2439" fill="#F8D24E"/>
<ellipse cx="83.8848" cy="29.3643" rx="5.85842" ry="6.2439" fill="#F8D24E"/>
<ellipse cx="98.5308" cy="19.9984" rx="5.85842" ry="6.2439" fill="#F8D24E"/>
<ellipse cx="112.2" cy="11.6731" rx="5.85842" ry="6.2439" fill="#F8D24E"/>
<ellipse cx="68.2622" cy="57.4618" rx="5.85842" ry="6.2439" fill="#F8D24E"/>
<ellipse cx="80.9556" cy="49.1366" rx="5.85842" ry="6.2439" fill="#F8D24E"/>
<ellipse cx="95.6016" cy="39.7708" rx="5.85842" ry="6.2439" fill="#F8D24E"/>
<ellipse cx="109.271" cy="31.4456" rx="5.85842" ry="6.2439" fill="#F8D24E"/>
<ellipse cx="6.74905" cy="27.283" rx="5.85842" ry="6.2439" fill="#F8D24E"/>
<ellipse cx="19.4419" cy="18.9579" rx="5.85842" ry="6.2439" fill="#F8D24E"/>
<ellipse cx="34.0879" cy="9.59205" rx="5.85842" ry="6.2439" fill="#F8D24E"/>
<path d="M33.1118 33.5269C36.3474 33.5269 38.9703 30.7314 38.9703 27.283C38.9703 23.8346 36.3474 21.0391 33.1118 21.0391C29.8763 21.0391 27.2534 23.8346 27.2534 27.283C27.2534 30.7314 29.8763 33.5269 33.1118 33.5269Z" fill="#F8D24E"/>
</svg>
