<svg width="102" height="34" viewBox="0 0 102 34" fill="none" xmlns="http://www.w3.org/2000/svg">
<ellipse cx="2.70733" cy="2.81717" rx="2.70733" ry="2.81717" transform="matrix(0.987476 -0.157829 0.145482 0.98937 76.6377 15.6222)" fill="#F8D24E"/>
<ellipse cx="2.70733" cy="2.81717" rx="2.70733" ry="2.81717" transform="matrix(0.987476 -0.157829 0.145482 0.98937 81.8838 10.9792)" fill="#F8D24E"/>
<ellipse cx="2.70733" cy="2.81717" rx="2.70733" ry="2.81717" transform="matrix(0.987476 -0.157829 0.145482 0.98937 87.9531 5.73059)" fill="#F8D24E"/>
<ellipse cx="2.70733" cy="2.81717" rx="2.70733" ry="2.81717" transform="matrix(0.987476 -0.157829 0.145482 0.98937 93.6445 1.01733)" fill="#F8D24E"/>
<ellipse cx="0.611373" cy="13.7916" rx="2.71977" ry="2.81979" fill="#F8D24E"/>
<ellipse cx="7.41313" cy="9.56197" rx="2.71977" ry="2.81979" fill="#F8D24E"/>
<ellipse cx="13.7579" cy="5.80172" rx="2.71977" ry="2.81979" fill="#F8D24E"/>
<ellipse cx="-2.55953" cy="24.6005" rx="2.71977" ry="2.81979" fill="#F8D24E"/>
<ellipse cx="3.33305" cy="20.8408" rx="2.71977" ry="2.81979" fill="#F8D24E"/>
<ellipse cx="10.1338" cy="16.611" rx="2.71977" ry="2.81979" fill="#F8D24E"/>
<ellipse cx="16.4786" cy="12.8513" rx="2.71977" ry="2.81979" fill="#F8D24E"/>
<ellipse cx="4.23833" cy="28.3598" rx="2.71977" ry="2.81979" fill="#F8D24E"/>
<ellipse cx="10.1319" cy="24.6004" rx="2.71977" ry="2.81979" fill="#F8D24E"/>
<ellipse cx="16.9307" cy="20.3707" rx="2.71977" ry="2.81979" fill="#F8D24E"/>
<ellipse cx="23.2764" cy="16.611" rx="2.71977" ry="2.81979" fill="#F8D24E"/>
<ellipse cx="11.9434" cy="30.7105" rx="2.71977" ry="2.81979" fill="#F8D24E"/>
<ellipse cx="17.836" cy="26.95" rx="2.71977" ry="2.81979" fill="#F8D24E"/>
<ellipse cx="24.6377" cy="22.7208" rx="2.71977" ry="2.81979" fill="#F8D24E"/>
<ellipse cx="30.9815" cy="18.961" rx="2.71977" ry="2.81979" fill="#F8D24E"/>
<ellipse cx="21.917" cy="31.1805" rx="2.71977" ry="2.81979" fill="#F8D24E"/>
<ellipse cx="27.8096" cy="27.4207" rx="2.71977" ry="2.81979" fill="#F8D24E"/>
<ellipse cx="34.6104" cy="23.1908" rx="2.71977" ry="2.81979" fill="#F8D24E"/>
<ellipse cx="40.9551" cy="19.4315" rx="2.71977" ry="2.81979" fill="#F8D24E"/>
<ellipse cx="33.7041" cy="31.1803" rx="2.71977" ry="2.81979" fill="#F8D24E"/>
<ellipse cx="39.5957" cy="27.4205" rx="2.71977" ry="2.81979" fill="#F8D24E"/>
<ellipse cx="46.3956" cy="23.1905" rx="2.71977" ry="2.81979" fill="#F8D24E"/>
<ellipse cx="52.7422" cy="19.4312" rx="2.71977" ry="2.81979" fill="#F8D24E"/>
<ellipse cx="43.6739" cy="30.7103" rx="2.71977" ry="2.81979" fill="#F8D24E"/>
<ellipse cx="49.5665" cy="26.95" rx="2.71977" ry="2.81979" fill="#F8D24E"/>
<ellipse cx="56.3672" cy="22.7208" rx="2.71977" ry="2.81979" fill="#F8D24E"/>
<ellipse cx="62.712" cy="18.961" rx="2.71977" ry="2.81979" fill="#F8D24E"/>
<ellipse cx="55.0059" cy="30.24" rx="2.71977" ry="2.81979" fill="#F8D24E"/>
<ellipse cx="60.8985" cy="26.4804" rx="2.71977" ry="2.81979" fill="#F8D24E"/>
<ellipse cx="67.6993" cy="22.2509" rx="2.71977" ry="2.81979" fill="#F8D24E"/>
<ellipse cx="74.044" cy="18.4909" rx="2.71977" ry="2.81979" fill="#F8D24E"/>
<ellipse cx="65.4317" cy="18.0211" rx="2.71977" ry="2.81979" fill="#F8D24E"/>
<ellipse cx="71.3243" cy="14.2614" rx="2.71977" ry="2.81979" fill="#F8D24E"/>
<ellipse cx="78.1241" cy="10.0317" rx="2.71977" ry="2.81979" fill="#F8D24E"/>
<ellipse cx="84.4698" cy="6.27169" rx="2.71977" ry="2.81979" fill="#F8D24E"/>
</svg>
